<?xml version="1.0" encoding="UTF-8" standalone="no"?>
<svg
   xmlns:dc="http://purl.org/dc/elements/1.1/"
   xmlns:cc="http://creativecommons.org/ns#"
   xmlns:rdf="http://www.w3.org/1999/02/22-rdf-syntax-ns#"
   xmlns:svg="http://www.w3.org/2000/svg"
   xmlns="http://www.w3.org/2000/svg"
   xmlns:xlink="http://www.w3.org/1999/xlink"
   xmlns:sodipodi="http://sodipodi.sourceforge.net/DTD/sodipodi-0.dtd"
   xmlns:inkscape="http://www.inkscape.org/namespaces/inkscape"
   inkscape:export-ydpi="9.8000002"
   inkscape:export-xdpi="9.8000002"
   inkscape:export-filename="/Users/virojfernando/Artorytale/artorytale original.png"
   sodipodi:docname="artorytale original.svg"
   inkscape:version="1.0beta1 (32d4812, 2019-09-19)"
   id="svg8"
   version="1.1"
   viewBox="0 0 1322.9166 1322.9167"
   height="5000"
   width="5000">
  <defs
     id="defs2">
    <linearGradient
       id="linearGradient_1_c1"
       class="linearGradient1"
       gradientTransform="rotate(-90,0.5,0.5)"
       x1="0.5"
       y1="0"
       x2="0.5"
       y2="1">
      <stop
         id="stop1"
         offset="0%"
         class="linearGradientColor1"
         stop-color="#FFDD64" />
      <stop
         id="stop2"
         offset="100%"
         class="linearGradientColor2"
         stop-color="#FF8F00" />
    </linearGradient>
    <linearGradient
       gradientUnits="userSpaceOnUse"
       id="linearGradient_1_c2"
       class="linearGradient2"
       gradientTransform="matrix(0.92531099,0.06672881,-0.08559161,1.0174427,11.089904,4.5882843)"
       x1="72.528641"
       y1="10.461989"
       x2="72.528641"
       y2="149.26382">
      <stop
         id="stop27"
         offset="0%"
         class="linearGradientColor1"
         stop-color="#FFDD64" />
      <stop
         id="stop29"
         offset="100%"
         class="linearGradientColor2"
         stop-color="#ff0000" />
    </linearGradient>
    <linearGradient
       gradientUnits="userSpaceOnUse"
       id="linearGradient_2_c1"
       class="linearGradient1"
       gradientTransform="matrix(0.99999619,0,0,1.0000038,-7.9173424,13.195671)"
       x1="65.695251"
       y1="0"
       x2="65.695251"
       y2="131.3905">
      <stop
         id="stop1-5"
         offset="0%"
         class="linearGradientColor1"
         stop-color="#00EFC8" />
      <stop
         id="stop2-2"
         offset="100%"
         class="linearGradientColor2"
         stop-color="#2C94EA" />
    </linearGradient>
    <linearGradient
       gradientUnits="userSpaceOnUse"
       y2="131.3905"
       x2="65.695251"
       y1="0"
       x1="65.695251"
       gradientTransform="matrix(0.99999619,0,0,1.0000038,-7.9173424,13.195671)"
       id="linearGradient101"
       xlink:href="#linearGradient_1_c1"
       inkscape:collect="always" />
    <linearGradient
       gradientUnits="userSpaceOnUse"
       y2="116.23714"
       x2="71.884874"
       y1="6.8510592"
       x1="71.884874"
       gradientTransform="matrix(1.0506284,0.07576609,-0.07538236,0.89608367,11.089904,4.5882843)"
       id="linearGradient103"
       xlink:href="#linearGradient_1_c1"
       inkscape:collect="always" />
  </defs>
  <sodipodi:namedview
     inkscape:window-maximized="0"
     inkscape:window-y="0"
     inkscape:window-x="0"
     inkscape:window-height="1200"
     inkscape:window-width="1920"
     inkscape:pagecheckerboard="false"
     units="px"
     showgrid="false"
     inkscape:document-rotation="0"
     inkscape:current-layer="layer1"
     inkscape:document-units="mm"
     inkscape:cy="2527.5259"
     inkscape:cx="-248.08203"
     inkscape:zoom="0.098793391"
     inkscape:pageshadow="2"
     inkscape:pageopacity="0.0"
     borderopacity="1.0"
     bordercolor="#666666"
     pagecolor="#ffffff"
     id="base" />
  <metadata
     id="metadata5">
    <rdf:RDF>
      <cc:Work
         rdf:about="">
        <dc:format>image/svg+xml</dc:format>
        <dc:type
           rdf:resource="http://purl.org/dc/dcmitype/StillImage" />
        <dc:title></dc:title>
      </cc:Work>
    </rdf:RDF>
  </metadata>
  <g
     id="layer1"
     inkscape:groupmode="layer"
     inkscape:label="Layer 1">
    <g
       transform="matrix(6.4919028,-0.4815051,0.54612646,6.6769061,98.927022,279.64138)"
       id="g54"
       style="overflow:visible;opacity:1;stroke-width:0.973221">
      <path
         style="fill:url(#linearGradient103);stroke-width:0.973221"
         inkscape:connector-curvature="0"
         fill="url(#linearGradient_1_c1)"
         d="m 148.861,29.514 c -3.404,0.923 -6.851,1.688 -10.326,2.292 2.083,0.128 4.167,0.207 6.254,0.237 -2.312,0.251 -4.623,0.503 -6.933,0.754 2.055,0.356 4.145,0.506 6.229,0.446 -3.233,0.548 -6.503,0.896 -9.78,1.044 1.872,0.543 3.854,0.701 5.787,0.463 -3.355,0.354 -6.71,0.708 -10.064,1.063 2.316,0.847 4.791,1.256 7.258,1.203 -3.961,0.546 -7.979,0.691 -11.968,0.437 1.467,0.533 2.981,0.927 4.522,1.175 -2.383,-0.02 -4.764,-0.287 -7.091,-0.798 1.302,0.874 2.85,1.378 4.417,1.439 -2.596,-0.111 -5.187,-0.354 -7.758,-0.726 1.497,0.973 3.057,1.309 4.833,1.477 -2.969,-0.201 -5.915,-0.721 -8.772,-1.546 1.411,0.995 3.02,1.709 4.703,2.09 -1.595,-0.228 -3.192,-0.455 -4.788,-0.685 1.975,1.611 4.457,2.594 7.001,2.767 -2.332,0.809 -4.9,0.218 -7.255,-0.518 -3.388,-1.056 -6.685,-2.402 -9.844,-4.019 1.622,1.857 3.852,3.174 6.261,3.696 -4.186,-0.283 -7.993,-2.376 -11.898,-3.908 -3.905,-1.533 -8.458,-2.489 -12.185,-0.563 1.633,0.138 3.268,0.276 4.901,0.415 -1.465,-0.162 -2.968,0.028 -4.344,0.553 1.143,0.353 2.343,0.51 3.54,0.473 -1.132,0.093 -2.25,0.332 -3.317,0.716 1.717,0.429 3.514,0.526 5.265,0.288 -1.634,1.035 -3.507,1.656 -5.423,1.957 1.247,-0.182 2.48,-0.449 3.688,-0.81 -2.293,1.175 -4.801,1.932 -7.361,2.221 2.654,-0.318 5.287,-0.795 7.884,-1.431 -2.752,1.561 -5.757,2.668 -8.861,3.271 2.639,-0.116 5.253,-0.727 7.67,-1.788 -2.854,1.638 -6.018,2.735 -9.272,3.217 1.6,-0.189 3.184,-0.516 4.728,-0.976 -2.764,1.347 -5.756,2.221 -8.81,2.57 1.631,0.185 3.289,0.106 4.894,-0.23 -2.957,1.036 -6.01,1.792 -9.109,2.256 2.284,-0.204 4.21,-0.113 6.488,-0.362 -3.039,1.315 -6.245,2.241 -9.518,2.746 2.083,-0.057 4.167,-0.113 6.25,-0.169 -3.038,0.53 -6.078,1.063 -9.116,1.595 1.462,-0.104 2.925,-0.206 4.389,-0.309 -1.768,0.399 -3.534,0.8 -5.302,1.198 1.678,0.309 3.403,0.36 5.095,0.153 -2.149,0.301 -4.266,0.843 -6.296,1.611 1.68,0.027 3.358,0.057 5.036,0.085 -2.334,0.311 -4.618,0.991 -6.74,2.012 1.417,-0.241 2.853,-0.382 4.289,-0.422 -1.491,0.513 -2.984,1.024 -4.477,1.536 1.481,-0.148 2.963,-0.295 4.444,-0.441 -2.312,0.755 -4.521,1.821 -6.55,3.164 1.487,-0.288 2.974,-0.576 4.461,-0.864 -2.026,0.748 -3.984,1.68 -5.843,2.782 1.328,-0.488 2.687,-0.892 4.064,-1.207 -1.776,0.703 -3.439,1.695 -4.902,2.924 1.358,-0.721 2.796,-1.294 4.279,-1.705 -1.668,1.155 -3.336,2.309 -5.003,3.462 1.358,-0.572 2.717,-1.145 4.075,-1.717 -1.475,0.851 -2.949,1.701 -4.423,2.551 1.563,-0.572 3.153,-1.072 4.763,-1.497 -2.226,1.607 -4.449,3.216 -6.674,4.823 1.193,-0.554 2.386,-1.107 3.579,-1.66 -1.435,1.038 -2.871,2.076 -4.306,3.115 2.742,-0.699 4.844,-2.051 6.943,-3.948 -1.623,2.347 -3.727,4.361 -6.142,5.883 1.27,-0.631 2.539,-1.262 3.809,-1.894 -1.558,1.38 -3.235,2.623 -5.01,3.711 1.546,-0.443 3.054,-1.025 4.496,-1.736 -1.254,1.34 -2.72,2.479 -4.327,3.365 1.389,-0.397 2.725,-0.98 3.96,-1.73 -1.493,1.14 -3.026,2.229 -4.594,3.264 1.308,-0.254 2.581,-0.683 3.777,-1.27 -0.986,0.918 -2.121,1.678 -3.348,2.24 1.348,0.012 2.695,-0.378 3.829,-1.107 -1.158,1.001 -2.508,1.781 -3.953,2.287 0.973,-0.061 1.934,-0.3 2.821,-0.7 -1.631,1.045 -3.388,1.893 -5.222,2.516 1.239,-0.054 2.47,-0.321 3.617,-0.791 -3.752,2.268 -8.257,2.815 -12.594,3.458 -4.338,0.642 -8.855,1.516 -12.276,4.261 2.74,-0.373 5.479,-0.746 8.219,-1.12 -4.132,2.108 -8.4,3.95 -12.77,5.51 -0.694,0.247 -1.448,0.491 -2.158,0.288 -0.711,-0.205 -1.214,-0.834 -1.456,-1.547 2.013,-3.999 4.063,-7.991 6.257,-11.883 6.196,-10.992 13.377,-21.687 21.415,-31.417 3.651,-4.42 7.57,-8.707 11.804,-12.643 0.024,-0.032 0.057,-0.063 0.096,-0.09 4.622,-4.285 9.619,-8.146 15.074,-11.278 6.023,-3.46 12.452,-5.792 19.125,-6.634 -1.716,0.167 -3.417,0.438 -5.099,0.804 -0.065,0.055 -0.139,0.066 -0.206,0.046 -6.088,1.352 -11.917,3.936 -17.224,7.292 C 64.177,35.083 55.677,44.163 48.18,53.66 40.034,63.978 32.988,75.17 26.651,86.674 c -1.227,2.227 -2.422,4.47 -3.599,6.725 -0.023,-0.753 0.146,-1.511 0.318,-2.251 0.629,-2.702 1.257,-5.404 1.886,-8.106 0.278,-1.196 0.558,-2.407 0.521,-3.634 -0.039,-1.226 -0.922,-2.249 -1.298,-3.418 -0.97,-3.012 -1.938,-6.023 -2.908,-9.036 -0.313,-0.972 -0.628,-1.952 -0.724,-2.968 -0.188,-2.018 0.496,-4.003 1.17,-5.913 0.127,0.789 0.405,1.553 0.817,2.237 0.042,-1.345 0.23,-2.685 0.56,-3.988 -0.126,1.246 0.114,2.529 0.682,3.646 -0.246,-1.912 -0.157,-3.867 0.262,-5.75 0.229,1.134 0.572,2.246 1.021,3.312 -0.015,-3.29 0.509,-6.582 1.542,-9.705 0.317,1.554 0.635,3.107 0.953,4.661 -0.059,-1.327 0.049,-2.661 0.315,-3.961 0.41,1.142 0.82,2.282 1.229,3.425 0.285,-2.813 1.393,-5.539 3.152,-7.752 -0.261,1.354 -0.281,2.757 -0.059,4.119 0.126,-1.775 0.634,-3.521 1.48,-5.087 0.076,1.227 0.153,2.45 0.229,3.676 0.054,-1.158 0.285,-2.308 0.684,-3.396 0.09,1.183 0.286,2.357 0.582,3.506 0.281,-1.647 0.563,-3.295 0.845,-4.941 0.104,1.051 0.646,1.945 0.99,2.945 0.105,-1.466 0.363,-2.921 0.77,-4.333 0.286,1.801 0.572,3.603 0.858,5.403 0.256,-1.641 0.513,-3.278 0.77,-4.918 0.033,1.515 0.248,3.024 0.638,4.488 0.214,-1.368 0.326,-2.753 0.335,-4.14 -0.061,1.263 0.149,2.538 0.614,3.713 -0.146,-2.947 0.02,-5.91 0.493,-8.823 0.109,1.241 0.334,2.472 0.673,3.671 0.444,-3.307 1.19,-6.571 2.223,-9.743 0.045,2.152 0.257,4.301 0.632,6.42 0.113,-1.495 0.228,-2.992 0.343,-4.488 0.173,1.054 0.346,2.107 0.518,3.161 -0.039,-2.724 0.473,-5.453 1.491,-7.979 0.061,2.383 0.17,4.764 0.329,7.142 0.222,-2.796 0.49,-5.731 2.063,-8.054 0.104,1.969 0.208,3.937 0.313,5.905 0.168,-0.991 0.338,-1.985 0.507,-2.977 0.116,1.396 0.44,2.776 0.958,4.081 0.939,-4.758 2.009,-9.776 5.304,-13.335 -0.541,1.91 -0.978,3.653 -1.517,5.563 1.16,-2.868 2.833,-5.528 4.915,-7.817 -1.075,1.892 -1.845,3.958 -2.27,6.092 0.623,-1.913 1.483,-3.748 2.558,-5.449 -0.695,1.778 -1.189,3.637 -1.467,5.526 0.902,-3.504 2.962,-6.697 5.778,-8.964 -1.188,1.96 -2.053,4.114 -2.551,6.353 0.758,-1.632 1.627,-3.211 2.6,-4.723 -0.558,1.204 -0.909,2.505 -1.033,3.826 1.094,-3.21 3.218,-6.062 5.979,-8.028 -0.488,1.248 -0.975,2.498 -1.465,3.745 0.773,-1.709 2.029,-3.197 3.585,-4.247 -0.584,1.06 -1.166,2.117 -1.749,3.178 0.776,-1.213 1.787,-2.273 2.961,-3.108 -0.334,0.679 -0.667,1.358 -1,2.038 0.937,-1.24 2.326,-2.129 3.843,-2.455 -0.448,0.698 -0.644,1.234 -1.092,1.934 1.45,-1.408 2.899,-2.816 4.35,-4.224 -0.692,1.161 -1.386,2.323 -2.078,3.485 1.501,-2.462 3.893,-4.366 6.63,-5.276 -0.52,0.693 -1.04,1.387 -1.56,2.082 2.599,-2.841 6.556,-4.38 10.392,-4.04 -2.188,1.512 -4.159,3.242 -6.205,4.939 1.896,-1.158 3.901,-2.136 5.981,-2.917 -1.051,0.768 -1.973,1.712 -2.715,2.781 1.42,-0.91 2.84,-1.817 4.26,-2.726 -1.301,1.117 -2.552,2.294 -3.749,3.522 3.111,-2.266 6.717,-3.847 10.491,-4.604 -2.076,1.028 -4.015,2.33 -5.752,3.863 1.231,-0.86 2.519,-1.64 3.851,-2.332 -0.843,0.73 -1.684,1.463 -2.525,2.192 1.936,-1.272 4.021,-2.317 6.199,-3.108 -1.517,0.891 -2.971,1.887 -4.345,2.983 1.695,-1.112 3.567,-1.956 5.523,-2.494 -1.554,0.787 -3.037,1.71 -4.431,2.756 2.523,-1.956 5.98,-2.028 9.174,-2.014 -1.397,0.455 -2.761,1.02 -4.073,1.684 4.464,-1.655 9.382,-1.346 14.131,-1.014 -1.085,0.186 -2.147,0.516 -3.147,0.977 3.793,-0.368 7.661,0.044 11.292,1.201 -1.683,-0.106 -3.343,-0.097 -4.999,0.219 4.361,0.249 8.709,0.742 13.014,1.477 -1.621,0.126 -3.243,0.253 -4.865,0.381 1.592,0.227 3.182,0.453 4.772,0.681 -1.291,-0.043 -2.584,0.02 -3.864,0.185 4.405,0.622 8.829,1.125 13.262,1.507 -2.036,0.138 -4.072,0.278 -6.107,0.416 1.939,0.237 3.896,0.361 5.851,0.374 -1.379,0.117 -2.76,0.232 -4.141,0.349 2.358,0.271 4.716,0.544 7.073,0.814 -2.628,0.541 -5.293,0.89 -7.972,1.04 2.095,0.069 4.19,0.14 6.286,0.211 -1.675,0.197 -3.349,0.393 -5.023,0.59 2.994,0.561 6.06,0.747 9.099,0.553 -1.595,0.478 -3.222,0.847 -4.865,1.106 1.936,-0.068 3.87,-0.214 5.796,-0.433 -1.208,0.531 -2.483,0.908 -3.786,1.121 1.778,0.087 3.57,-0.078 5.304,-0.487 -0.863,0.772 -1.431,1.448 -2.534,1.804 0.913,0.369 1.926,0.484 2.898,0.334 -1.804,0.672 -3.689,1.125 -5.603,1.346 1.344,0.1 2.698,0.079 4.039,-0.063 -1.509,0.526 -3.07,0.896 -4.654,1.102 2.443,0.402 4.97,0.304 7.374,-0.287 -2.588,1.673 -5.411,2.983 -8.357,3.882 1.318,-0.033 2.639,-0.07 3.961,-0.102 z"
         class="color c1"
         id="path34" />
      <path
         style="fill:url(#linearGradient_1_c2);stroke-width:0.973221"
         inkscape:connector-curvature="0"
         fill="url(#linearGradient_1_c2)"
         d="m 7.308,135.067 c -0.064,0.121 -0.394,0.254 -0.506,0.356 -0.146,0.136 -0.27,0.299 -0.387,0.459 -1.014,1.376 -1.788,2.954 -3.06,4.094 -0.09,-0.601 0.144,-1.197 0.373,-1.761 0.445,-1.099 0.898,-2.209 1.594,-3.168 0.327,-0.452 0.832,-0.908 1.372,-0.766 0.33,0.089 0.781,0.462 0.614,0.786 z M 151.347,22.264 c -2.199,0.751 -4.464,1.225 -6.762,1.489 1.973,-0.464 3.925,-1.048 5.876,-1.563 -5.316,0.974 -10.76,1.256 -16.148,0.841 1.669,-0.101 3.336,-0.243 4.998,-0.431 -2.918,-0.331 -5.836,-0.661 -8.754,-0.993 2.487,0.32 5.039,0.139 7.456,-0.532 -4.933,-0.5 -9.841,-1.221 -14.709,-2.154 2.379,0.226 4.789,0.125 7.142,-0.298 -2.717,-0.58 -5.519,-0.758 -8.288,-0.527 2.543,-0.178 5.07,-0.6 7.533,-1.259 -3.923,-0.521 -7.878,-0.801 -11.836,-0.836 2.347,-0.619 4.725,-1.116 7.121,-1.488 -7.241,-0.904 -14.67,-0.282 -21.661,1.813 2.851,-1.151 5.778,-2.106 8.759,-2.855 -3.534,-0.212 -7.119,0.509 -10.296,2.067 3.989,-2.398 8.262,-4.326 12.701,-5.727 -5.574,0.556 -11.057,2.03 -16.155,4.348 1.663,-1.06 3.325,-2.118 4.989,-3.178 -3.385,1.651 -6.651,3.545 -9.766,5.659 1.952,-1.794 4.004,-3.482 6.139,-5.055 -2.845,1.588 -5.57,3.391 -8.145,5.387 1.375,-1.674 2.918,-3.209 4.598,-4.577 -2.646,1.795 -5.291,3.59 -7.937,5.385 1.098,-2.4 2.526,-4.675 4.285,-6.643 -5.298,3.767 -10.04,8.315 -14.023,13.453 0.822,-1.869 1.646,-3.737 2.47,-5.607 -1.317,1.405 -2.634,2.81 -3.949,4.214 2.048,-3.384 4.307,-6.64 6.762,-9.741 -4.475,3.286 -8.112,7.701 -10.48,12.723 0.874,-2.635 1.891,-5.223 3.045,-7.747 -1.401,2.248 -2.732,4.539 -3.993,6.872 1.106,-3.142 1.795,-6.431 2.04,-9.753 -1.298,2.991 -2.733,5.921 -4.299,8.781 0.274,-2.03 0.549,-4.06 0.823,-6.089 -1.448,3.803 -2.896,7.605 -4.343,11.408 0.203,-2.518 0.281,-5.046 0.235,-7.571 -0.649,3.27 -1.642,6.471 -2.952,9.535 0.258,-1.877 0.517,-3.752 0.775,-5.629 -1.35,3.335 -2.97,6.563 -4.84,9.637 0.848,-2.999 1.49,-6.056 1.921,-9.143 -1.182,3.671 -2.549,7.28 -4.098,10.812 0.298,-2.509 0.596,-5.019 0.894,-7.527 -1.174,2.929 -2.216,5.911 -3.116,8.937 -0.047,-1.916 -0.092,-3.832 -0.138,-5.747 -0.653,3.154 -1.307,6.31 -1.961,9.464 -0.471,-2.81 -0.689,-5.66 -0.652,-8.51 -0.448,3.346 -1.208,6.419 -1.926,9.718 0.35,-2.038 0.378,-4.13 0.083,-6.177 -0.54,1.811 -0.894,3.676 -1.051,5.559 0.091,-2.131 -0.112,-4.273 -0.604,-6.35 -0.498,3.224 -0.998,6.447 -1.496,9.67 -0.117,-2.345 -0.234,-4.688 -0.351,-7.033 -0.503,2.727 -1.005,5.451 -1.507,8.178 -0.096,-1.746 -0.191,-3.491 -0.288,-5.238 -0.312,1.973 -0.625,3.944 -0.937,5.916 -0.174,-1.718 -0.348,-3.437 -0.521,-5.154 -0.248,2.97 -0.496,5.941 -0.742,8.911 0.03,-2.302 -0.225,-4.608 -0.755,-6.85 -0.524,3.696 -1.312,7.355 -2.35,10.94 0.122,-1.726 0.243,-3.45 0.364,-5.177 -0.707,1.756 -1.182,3.604 -1.407,5.484 0.058,-3.156 -0.279,-6.318 -1.002,-9.391 -0.277,3.254 -0.557,6.507 -0.835,9.761 0.24,-2.716 -0.021,-5.479 -0.766,-8.103 -0.408,3.071 -0.661,6.162 -0.755,9.259 -0.475,-2.748 -1.108,-5.466 -1.898,-8.14 -0.039,4.343 -0.078,8.685 -0.118,13.027 -0.007,-2.298 -0.296,-4.595 -0.861,-6.821 -0.172,1.008 -0.154,2.05 0.049,3.053 -0.368,-1.977 -0.831,-3.937 -1.385,-5.869 -0.056,3.339 -0.11,6.68 -0.165,10.02 -0.272,-2.167 -0.834,-4.298 -1.659,-6.32 0.169,1.488 0.337,2.977 0.504,4.466 -0.9,-1.919 -1.8,-3.839 -2.701,-5.758 0.988,4.69 1.134,9.556 0.43,14.297 -0.395,-1.99 -0.92,-3.956 -1.569,-5.878 -0.054,1.152 0.071,2.315 0.367,3.432 -0.702,-1.795 -1.316,-3.624 -1.837,-5.479 -0.142,2.501 0.044,5.02 0.55,7.472 -0.534,-1.498 -1.068,-2.997 -1.602,-4.495 0.656,3.431 0.896,6.942 0.714,10.429 -0.429,-2.276 -1.262,-4.476 -2.45,-6.465 2.168,6.078 3.054,12.61 2.579,19.046 -0.013,0.178 -0.422,0.346 -0.6,0.371 -0.022,-3.578 -0.653,-7.151 -1.854,-10.521 -0.011,1.281 0.061,2.561 0.175,3.836 -0.071,-0.368 -0.174,-0.729 -0.314,-1.077 0.317,5.491 -0.151,11.025 -1.39,16.385 5.295,-10.762 11.431,-21.32 18.066,-31.312 0.488,-0.735 0.985,-1.477 1.297,-2.302 1.142,-3.017 4.503,-4.978 6.325,-7.64 0.539,-0.786 1.055,-1.588 1.62,-2.354 0.762,-1.034 1.611,-1.999 2.459,-2.964 1.339,-1.521 2.677,-3.045 4.015,-4.567 0.702,-0.799 1.404,-1.599 2.106,-2.396 0.791,-0.902 1.584,-1.803 2.429,-2.654 0.732,-0.737 1.501,-1.435 2.271,-2.132 1.087,-0.986 2.176,-1.972 3.263,-2.958 4.813,-4.364 10.582,-8.069 16.461,-10.838 5.879,-2.768 12.308,-4.512 18.805,-4.487 0.633,0.002 1.265,0.031 1.896,0.056 -0.778,0.053 -1.557,0.103 -2.334,0.178 -1.435,0.138 -2.867,0.313 -4.279,0.601 -1.455,0.295 -2.886,0.706 -4.302,1.157 -6.146,1.958 -12.378,4.458 -17.515,8.363 -5.008,3.805 -10.036,7.628 -14.414,12.145 -1.687,1.739 -3.271,3.575 -4.854,5.411 -0.919,1.063 -1.837,2.129 -2.755,3.192 -1.288,1.493 -2.552,3.159 -3.819,4.672 -2.624,3.131 -4.876,6.554 -7.121,9.967 -2.414,3.669 -4.579,7.788 -7.14,11.356 -5.064,7.064 -8.719,15.02 -12.341,22.921 4.547,-3.857 9.573,-7.149 14.926,-9.776 -1.866,0.123 -3.706,0.619 -5.381,1.45 1.706,-1.376 3.764,-2.229 5.81,-3.011 4.695,-1.792 9.504,-3.291 14.386,-4.487 -4.463,0.199 -8.908,0.788 -13.27,1.757 5.61,-2.511 11.899,-3.078 17.671,-5.195 -2.019,0.203 -4.037,0.405 -6.057,0.609 1.172,-0.339 2.313,-0.782 3.408,-1.322 -1.87,0.549 -3.79,0.932 -5.728,1.142 1.779,-0.394 3.522,-0.947 5.203,-1.651 -2.254,0.503 -4.508,1.006 -6.761,1.508 2.673,-0.903 5.277,-2.015 7.78,-3.318 -3.005,0.843 -6.082,1.429 -9.188,1.749 1.58,-0.622 3.158,-1.245 4.737,-1.867 -2.61,0.869 -5.265,1.606 -7.949,2.209 4.896,-1.817 9.809,-3.645 14.397,-6.14 -2.938,0.782 -5.875,1.563 -8.812,2.344 1.502,-0.549 2.959,-1.216 4.354,-1.995 -1.938,0.67 -3.928,1.2 -5.944,1.583 3.938,-1.449 7.757,-3.454 11.351,-5.621 -3.478,1.056 -6.954,2.113 -10.431,3.168 2.432,-1.073 4.863,-2.145 7.298,-3.218 -2.678,0.584 -5.273,1.538 -7.692,2.826 2.835,-1.488 5.668,-2.975 8.503,-4.463 -3.182,1.037 -6.413,2.098 -9.167,3.995 5.403,-3.622 10.837,-7.261 16.755,-9.957 -3.817,0.679 -7.515,1.997 -10.938,3.815 3.021,-1.933 6.379,-3.339 9.874,-4.138 -4.183,0.908 -8.412,1.996 -12.038,4.271 4.436,-3.062 9.221,-5.612 14.234,-7.588 -3.132,0.491 -6.224,1.23 -9.239,2.211 2.417,-1.298 5.036,-2.218 7.732,-2.718 -2.461,0.265 -4.902,0.701 -7.303,1.305 3.704,-1.445 7.362,-2.927 11.065,-4.371 -3.092,0.108 -6.165,0.729 -9.055,1.832 2.297,-1.116 4.695,-2.025 7.155,-2.713 -2.596,0.422 -5.145,1.126 -7.589,2.095 2.702,-1.345 5.459,-2.706 8.445,-3.142 -2.069,0.044 -4.134,0.408 -6.093,1.077 3.521,-1.43 7.265,-2.317 11.053,-2.625 -3.905,-0.185 -7.831,0.105 -11.667,0.858 4.108,-1.72 8.605,-2.225 13.031,-2.711 1.378,-0.152 2.755,-0.303 4.132,-0.455 -4.256,-0.397 -8.548,-0.422 -12.81,-0.073 2.297,-0.604 4.648,-1.002 7.018,-1.188 -1.894,0.021 -3.784,0.045 -5.678,0.067 4.419,-0.747 8.838,-1.494 13.256,-2.24 -3.21,-0.151 -6.431,-0.121 -9.639,0.09 4.571,-0.757 9.168,-1.352 13.78,-1.788 -4.178,-0.45 -8.39,-0.551 -12.591,-0.569 6.869,-1.218 13.771,-2.259 20.693,-3.122 -4.924,-0.682 -9.949,-0.624 -14.856,0.172 2.424,-0.517 4.863,-0.958 7.314,-1.323 -2.387,0.082 -4.774,0.163 -7.16,0.245 2.531,-0.533 5.089,-0.939 7.66,-1.22 -1.935,-0.222 -3.911,-0.089 -5.8,0.389 3.334,-0.994 6.766,-1.661 10.231,-1.984 -3.355,-0.212 -6.733,-0.105 -10.069,0.313 7.082,-2.408 14.845,-1.759 22.171,-0.248 -4.955,-2.35 -10.683,-2.225 -16.159,-1.948 6.19,-0.777 12.524,-0.413 18.586,1.068 -3.463,-1.495 -7.177,-2.335 -10.903,-2.925 5.712,0.271 11.337,1.461 16.934,2.647 -3.948,-1.376 -7.989,-2.482 -12.087,-3.311 5.796,0.222 11.5,1.446 17.172,2.667 -4.339,-1.399 -8.772,-2.502 -13.261,-3.296 1.513,-0.218 2.91,-0.336 4.429,-0.169 -2.838,-0.719 -5.706,-1.32 -8.594,-1.802 1.456,0.116 2.912,0.231 4.366,0.349 -2.679,-0.453 -5.36,-0.908 -8.04,-1.361 8.315,0.58 16.632,1.159 24.947,1.739 -3.674,-0.794 -7.349,-1.587 -11.022,-2.381 1.627,0.18 3.254,0.36 4.881,0.541 -3.717,-0.84 -7.49,-1.426 -11.289,-1.754 3.318,-0.537 6.707,-0.246 10.055,0.045 5.257,0.457 10.513,0.914 15.769,1.372 -3.834,-0.889 -7.666,-1.778 -11.501,-2.668 3.719,0.736 7.527,1.009 11.313,0.811 -2.7,-0.369 -5.4,-0.739 -8.101,-1.108 9.755,0.586 19.535,0.787 29.307,0.603 -2.91,-0.258 -5.821,-0.516 -8.731,-0.774 5.447,0.15 10.924,-0.945 15.892,-3.182 z"
         class="color c2"
         id="path36" />
      <path
         style="stroke-width:0.973221"
         inkscape:connector-curvature="0"
         fill="#2d2c29"
         d="m 163.165,15.203 c 0.052,-0.408 -0.485,-0.79 -0.787,-0.4 -1.633,2.112 -3.683,3.771 -6.038,4.903 4.933,-4.351 8.093,-10.606 8.595,-17.188 0.034,-0.448 -0.602,-0.791 -0.821,-0.292 -1.689,3.832 -5.408,6.047 -9.393,6.88 C 149.693,10.158 144.706,8.83 140.023,7.002 135.279,5.15 130.707,2.891 125.756,1.612 121.194,0.432 116.461,-0.073 111.754,0.137 107.046,0.349 102.43,1.282 98,2.846 c 0.987,-0.891 2.155,-1.52 3.507,-1.882 0.533,-0.142 0.37,-1.034 -0.188,-0.96 -4.683,0.63 -9.291,1.761 -13.705,3.455 -3.168,1.216 -6.582,2.613 -9.168,4.908 -6.032,-1.285 -13.107,0.563 -18.067,4.096 -4.508,3.21 -7.443,8.17 -8.428,13.538 0.059,-3.111 0.961,-6.173 2.687,-8.814 0.195,-0.298 -0.21,-0.543 -0.459,-0.416 -3.033,1.563 -5.813,3.62 -8.084,6.178 -2.213,2.494 -3.853,5.388 -5.459,8.292 -1.63,2.949 -3.26,5.944 -5.574,8.425 -1.191,1.28 -2.565,2.23 -3.996,3.216 -0.802,0.55 -1.532,1.137 -2.095,1.882 0.128,-1.141 0.631,-2.265 1.497,-3.003 0.329,-0.279 0.119,-0.978 -0.366,-0.76 -0.034,0.016 -0.064,0.032 -0.098,0.048 h -0.001 c 0,0 0,0 0,10e-4 -3.124,1.445 -5.033,4.335 -6.308,7.439 -0.515,1.259 -0.954,2.534 -1.294,3.826 -4.644,3.482 -2.249,10.894 -0.978,15.449 0.98,3.513 1.961,7.084 2.509,10.694 0.343,2.255 0.42,4.489 0.396,6.734 -0.047,-0.523 -0.101,-1.039 -0.152,-1.539 -0.219,-2.103 -0.608,-4.233 -1.336,-6.222 -1.254,-3.426 -3.354,-6.664 -6.127,-9.036 -0.188,-0.163 -0.41,0.101 -0.252,0.278 3.252,3.683 4.267,8.847 4.747,13.588 0.287,2.84 0.325,5.672 -0.118,8.501 -0.358,2.283 -1.072,4.468 -1.622,6.698 -2.825,5.624 -5.491,11.33 -8.012,17.096 -3.661,8.38 -7.081,16.9 -9.894,25.606 -0.234,0.726 -0.463,1.452 -0.686,2.182 -0.234,0.771 -1.167,3.694 -0.788,3.116 1.841,-2.819 6.063,-8.028 8.563,-10.284 0.163,-0.147 0.219,-0.456 0.139,-0.657 -1.337,-3.308 0.975,-7.542 2.249,-10.736 1.237,-3.103 2.529,-6.183 3.863,-9.243 1.989,-4.562 3.982,-9.12 6.096,-13.621 1.976,-1.423 3.872,-2.926 5.977,-4.17 2.422,-1.433 4.996,-2.594 7.628,-3.587 5.159,-1.943 10.626,-2.945 16.124,-3.198 0.329,-0.016 0.403,-0.462 0.13,-0.612 -4.209,-2.325 -9.897,-0.988 -14.306,0.132 -1.325,0.336 -2.629,0.739 -3.917,1.193 1.527,-0.668 3.092,-1.258 4.702,-1.753 4.549,-1.397 9.271,-1.731 13.928,-2.589 3.938,-0.725 7.786,-1.908 10.896,-4.53 2.815,-2.377 4.846,-5.736 4.556,-9.518 -0.041,-0.509 -0.724,-0.646 -0.966,-0.203 -0.504,0.918 -1.097,1.78 -1.744,2.599 3.249,-8.375 9.151,-15.802 16.521,-20.897 6.707,-4.639 15.262,-7.195 19.85,-14.332 3.716,2.102 7.168,4.701 11.226,6.136 2.459,0.871 5.106,1.33 7.702,0.878 1.616,-0.282 3.391,-0.937 3.789,-2.566 8.237,0.282 16.852,-2.116 23.064,-7.69 1.706,-1.53 3.071,-3.308 4.458,-5.12 1.557,-2.033 3.247,-3.644 5.205,-5.279 3.362,-2.813 6.757,-6.047 7.344,-10.61 z m -5.898,8.13 c -1.576,1.127 -3.201,2.091 -5.063,2.794 -2.313,0.872 -4.729,1.404 -7.17,1.757 -5.607,0.812 -11.406,1.249 -17.067,0.993 -11.8,-0.537 -23.333,-3.782 -35.205,-3.479 -4.922,0.126 -9.886,0.844 -14.539,2.479 0.583,-0.333 1.17,-0.656 1.762,-0.969 10.15,-3.795 21.23,-2.502 31.849,-1.803 6.582,0.433 13.162,0.869 19.743,1.306 5.957,0.396 12.101,0.871 17.95,-0.631 4.657,-1.195 9.141,-3.771 11.891,-7.758 -0.93,2.037 -2.46,3.757 -4.151,5.311 z m -76.564,8.525 c 5.264,-0.257 10.521,0.633 15.604,1.94 5.226,1.344 10.308,3.099 15.239,5.286 1.962,0.872 3.915,1.881 5.909,2.734 -1.504,0.511 -3.281,0.254 -4.791,-0.022 -1.881,-0.346 -3.715,-0.956 -5.444,-1.77 -3.301,-1.553 -6.265,-3.628 -9.835,-4.562 -7.093,-1.854 -14.684,-2.278 -21.968,-1.642 -2.51,0.222 -5.42,0.502 -7.882,1.526 0.082,-0.068 0.166,-0.136 0.249,-0.205 4.174,-1.819 8.294,-3.06 12.919,-3.285 z M 63.331,39.07 c 4.928,-2.639 10.194,-3.454 15.721,-3.549 5.293,-0.092 10.645,-0.138 15.706,1.433 -1.494,-0.124 -3.007,-0.124 -4.478,-0.141 -3.099,-0.035 -6.194,0.064 -9.282,0.313 -5.578,0.448 -11.438,1.139 -16.696,3.154 -1.878,0.72 -3.657,1.656 -5.22,2.892 1.351,-1.391 2.734,-2.748 4.154,-4.063 0.031,-0.01 0.063,-0.023 0.095,-0.039 z M 94.1,44.511 c -3.945,1.331 -7.75,2.857 -11.861,3.707 -4.6,0.951 -9.306,1.399 -13.985,1.732 -4.314,0.306 -8.676,0.631 -12.827,1.927 -2.064,0.645 -4.527,1.611 -6.505,3.019 0.34,-0.433 0.681,-0.865 1.023,-1.295 2.86,-2.616 5.986,-4.437 9.864,-5.53 4.688,-1.32 9.624,-1.543 14.466,-1.729 4.799,-0.183 9.538,-0.547 14.213,-1.706 3.372,-0.838 6.867,-2.022 9.767,-4.025 -1.214,1.48 -2.626,2.754 -4.155,3.9 z M 58.012,44.29 c 3.732,-3.254 8.553,-4.74 13.359,-5.633 5.764,-1.07 11.637,-1.579 17.497,-1.56 2.513,0.007 5.101,0.02 7.595,0.46 0.159,0.063 0.317,0.119 0.475,0.186 0.242,0.101 0.482,0.21 0.722,0.317 -2.667,1.181 -5.435,2.011 -8.343,2.353 -3.272,0.385 -6.577,0.534 -9.858,0.845 -6.082,0.575 -12.425,0.834 -18.272,2.747 -1.922,0.63 -3.712,1.468 -5.319,2.605 0.704,-0.784 1.42,-1.556 2.144,-2.32 z m -4.797,5.347 c 4.475,-3.565 10.341,-4.681 15.981,-4.907 3.539,-0.142 7.083,-0.022 10.62,-0.208 3.309,-0.174 6.569,-0.685 9.775,-1.518 2.062,-0.536 4.079,-1.229 6.04,-2.055 -7.423,4.068 -16.458,4.64 -24.776,5.148 -4.454,0.273 -8.939,0.735 -13.162,2.265 -2.051,0.742 -4.191,1.764 -6.031,3.125 0.513,-0.62 1.032,-1.237 1.553,-1.85 z M 98.01,39.481 c -5.677,2.823 -11.868,4.442 -18.211,4.774 -6.632,0.347 -13.406,-0.347 -19.866,1.551 -2.021,0.594 -3.967,1.452 -5.693,2.637 0.193,-0.221 0.389,-0.44 0.583,-0.661 4.32,-3.402 9.773,-4.736 15.17,-5.377 3.151,-0.375 6.316,-0.677 9.479,-0.922 3.238,-0.252 6.493,-0.373 9.724,-0.698 3.113,-0.313 6.146,-1.143 8.972,-2.487 0.293,0.14 0.583,0.284 0.871,0.433 -0.339,0.258 -0.681,0.51 -1.029,0.75 z M 93.301,20.577 c -0.319,0.058 -0.638,0.117 -0.957,0.181 7.093,-7.663 17.382,-10.756 27.621,-10.841 5.977,-0.052 11.827,0.877 17.633,2.22 4.022,0.93 8.139,1.941 12.272,1.896 -1.399,0.07 -2.814,0.022 -4.217,-0.083 -4.399,-0.334 -8.773,-0.935 -13.177,-1.229 -8.842,-0.593 -17.87,-0.466 -26.447,1.989 -4.482,1.281 -8.859,3.132 -12.71,5.782 -0.032,0.022 -0.032,0.058 -0.018,0.085 z m 24.426,-7.537 c 4.717,-0.402 9.469,-0.342 14.189,-0.042 4.571,0.29 9.107,0.914 13.672,1.268 3.472,0.268 7.217,0.245 10.42,-1.237 3.091,-1.093 5.86,-3.138 7.301,-6 -0.429,1.605 -1.02,3.153 -1.763,4.623 -2.846,2.917 -6.999,3.589 -10.953,3.729 -4.539,0.161 -9.089,0.03 -13.621,-0.247 -8.47,-0.521 -17.062,-1.385 -25.456,0.326 -3.985,0.813 -8.046,2.095 -11.406,4.454 -2.224,0.038 -4.433,0.253 -6.619,0.629 7.35,-4.543 15.671,-6.775 24.236,-7.503 z m 36.302,7.373 c -3.92,1.521 -7.896,2.917 -12.094,3.433 -4.525,0.557 -9.136,0.425 -13.641,-0.247 -7.302,-1.089 -14.714,-3.11 -22.153,-3.54 7.591,-1.464 15.385,0.23 22.992,0.853 7.751,0.636 15.856,0.586 23.351,-1.741 2.115,-0.656 4.258,-1.559 6.021,-2.912 -1.299,1.55 -2.801,2.949 -4.476,4.154 z m -49.56,-0.422 c -0.391,-0.011 -0.783,-0.013 -1.176,-0.012 -0.159,-0.01 -0.32,-0.016 -0.479,-0.023 7.067,-3.415 15.179,-3.293 22.877,-2.994 8.871,0.342 17.803,1.161 26.657,0.112 2.554,-0.303 5.287,-0.913 7.378,-2.423 -1.938,1.979 -4.462,3.308 -7.11,4.173 -3.71,1.211 -7.656,1.759 -11.54,1.99 -4.048,0.24 -8.111,0.092 -12.146,-0.269 -3.907,-0.349 -7.789,-0.938 -11.699,-1.269 -4.254,-0.356 -8.552,-0.353 -12.716,0.692 -0.018,0.006 -0.03,0.015 -0.046,0.023 z m 55.95,-6.359 c -2.201,1.954 -5.337,2.652 -8.205,3.029 -4.411,0.578 -8.86,0.639 -13.301,0.524 -8.446,-0.217 -16.988,-1.284 -25.43,-0.487 -3.995,0.379 -8.021,1.292 -11.565,3.223 -0.375,-0.008 -0.749,-0.015 -1.123,-0.014 3.159,-1.819 6.482,-3.247 10.059,-4.064 4.07,-0.931 8.255,-1.212 12.422,-1.18 9.131,0.068 18.193,1.406 27.341,1.084 3.589,-0.125 7.592,-0.686 10.38,-3.077 -0.186,0.326 -0.377,0.646 -0.578,0.962 z m -58.655,7.221 c 4.863,0.302 9.652,0.904 14.464,1.721 4.455,0.755 8.91,1.611 13.417,2.002 4.437,0.386 8.908,0.369 13.335,-0.132 3.677,-0.417 7.386,-1.133 10.676,-2.824 0.063,0.01 0.133,0.009 0.205,-0.012 0.414,-0.114 0.819,-0.245 1.22,-0.387 -6.448,3.375 -14.087,3.963 -21.355,3.735 -9.673,-0.304 -19.204,-2.181 -28.843,-2.896 -3.871,-0.286 -7.789,-0.401 -11.671,-0.11 2.791,-0.625 5.647,-1.005 8.552,-1.097 z m -11.276,1.791 c 9.281,-1.053 18.537,0.068 27.777,1.212 9.487,1.175 19.251,2.321 28.736,0.509 3.921,-0.748 7.943,-2.048 11.104,-4.557 1.169,-0.69 2.252,-1.515 3.233,-2.467 -2.54,3.969 -6.795,6.545 -11.281,7.847 -5.764,1.674 -11.866,1.343 -17.782,0.962 -6.468,-0.415 -12.938,-0.835 -19.405,-1.258 -5.854,-0.383 -11.73,-0.933 -17.602,-0.902 -4.204,0.022 -8.491,0.351 -12.524,1.551 2.513,-1.165 5.098,-2.141 7.744,-2.897 z m -15.271,7.057 c 0.029,-0.001 0.059,-0.004 0.093,-0.018 10.919,-4.637 22.943,-3.445 34.388,-1.885 11.808,1.609 23.511,2.651 35.391,0.982 1.703,-0.238 3.51,-0.556 5.277,-1.038 -1.317,0.519 -2.69,0.909 -4.07,1.256 -2.868,0.726 -5.772,1.304 -8.699,1.725 -5.841,0.841 -11.781,1.106 -17.664,0.61 -11.549,-0.972 -22.928,-4.543 -34.604,-3.538 -3.927,0.339 -7.863,1.182 -11.457,2.8 0.107,-0.073 0.212,-0.148 0.32,-0.222 0.339,-0.227 0.682,-0.45 1.025,-0.672 z M 155.233,9.985 c 2.915,-0.649 5.638,-2.029 7.602,-4.178 -2.026,4.259 -6.615,6.634 -11.325,7.059 -5.893,0.53 -11.64,-1.395 -17.374,-2.413 -10.147,-1.8 -20.628,-2.137 -30.32,1.861 -4.672,1.928 -8.914,4.759 -12.257,8.569 -0.012,0.015 -0.016,0.027 -0.023,0.042 -0.253,0.055 -0.506,0.112 -0.758,0.172 1.237,-1.351 2.439,-2.716 3.827,-3.92 1.471,-1.274 3.061,-2.405 4.73,-3.404 3.308,-1.977 6.928,-3.435 10.651,-4.413 8.698,-2.281 17.903,-1.972 26.731,-0.673 4.134,0.609 8.339,1.658 12.547,1.68 1.949,0.159 3.936,0.069 5.969,-0.382 z M 144.514,9.516 C 142.169,9.193 139.833,8.75 137.493,8.434 132.941,7.816 128.348,7.39 123.751,7.416 c -8.139,0.047 -16.348,1.6 -23.519,5.581 -3.598,1.998 -7.321,4.659 -9.757,8.028 -0.034,0.049 -0.034,0.103 -0.014,0.146 -1.54,0.374 -3.063,0.823 -4.569,1.349 4.904,-3.82 9.183,-8.469 14.632,-11.555 6.013,-3.407 12.676,-5.519 19.542,-6.165 3.158,-0.298 6.328,-0.364 9.498,-0.387 0.314,0.07 0.631,0.14 0.947,0.205 1.216,0.254 2.377,0.688 3.574,0.983 3.446,1.447 6.895,2.972 10.429,3.915 z M 126.878,3.867 c 0.365,0.061 0.729,0.131 1.092,0.204 -5.598,0.121 -11.217,0.443 -16.615,2.021 -3.221,0.941 -6.384,2.296 -9.382,3.796 -3.047,1.524 -5.777,3.543 -8.381,5.727 -2.787,2.337 -5.455,4.81 -8.271,7.11 -0.438,0.159 -0.875,0.323 -1.311,0.494 2.833,-2.09 4.934,-5.315 7.423,-7.706 3.681,-3.536 7.909,-6.502 12.573,-8.585 4.695,-2.099 9.665,-3.31 14.807,-3.539 2.698,-0.119 5.401,0.045 8.065,0.478 z m -1.112,-1.242 c -2.061,-0.258 -4.144,-0.337 -6.217,-0.257 -5.107,0.199 -10.195,1.45 -14.864,3.519 -4.296,1.901 -8.313,4.512 -11.851,7.598 -1.852,1.613 -3.544,3.375 -5.141,5.238 -1.784,2.08 -3.525,4.063 -5.957,5.406 -0.033,0.02 -0.053,0.047 -0.065,0.076 -1.006,0.452 -2.002,0.935 -2.985,1.448 -0.086,0.046 -0.17,0.094 -0.255,0.139 4.513,-4.452 8.711,-9.221 13.272,-13.624 2.366,-2.284 5.149,-3.872 8.066,-5.342 2.761,-1.39 5.54,-2.768 8.446,-3.828 3.017,-1.1 6.173,-1.803 9.389,-1.788 2.758,0.236 5.492,0.711 8.162,1.415 z M 114.408,1.041 c -4.701,0.604 -9.175,2.698 -13.381,4.809 -2.804,1.407 -5.665,2.814 -8.073,4.856 -2.584,2.189 -4.846,4.797 -7.215,7.211 -2.705,2.755 -5.466,5.462 -8.085,8.299 -0.971,0.527 -1.934,1.072 -2.88,1.646 3.395,-3.3 6.025,-7.346 8.961,-11.035 1.653,-2.077 3.411,-4.058 5.415,-5.806 C 91.213,9.22 93.463,7.644 95.785,6.196 97.07,5.395 98.38,4.633 99.7,3.892 c 0.971,-0.543 1.938,-1.101 2.95,-1.556 3.837,-0.946 7.801,-1.37 11.758,-1.295 z M 96.862,2.686 c -4.856,1.018 -9.345,3.484 -12.959,6.867 -4.074,3.811 -6.724,8.77 -9.411,13.586 -1.637,2.937 -3.376,5.75 -5.338,8.478 -0.588,0.429 -1.171,0.866 -1.749,1.312 1.781,-2.513 3.466,-5.098 5.054,-7.735 1.685,-2.796 3.121,-5.705 4.645,-8.588 1.456,-2.759 3.115,-5.428 5.438,-7.546 2.13,-1.941 4.669,-3.368 7.302,-4.506 C 92.398,3.451 95.052,2.626 97.718,1.84 97.413,2.097 97.13,2.383 96.862,2.686 Z M 78.005,17.632 c 2.792,-4.644 6.284,-8.74 10.999,-11.51 2.309,-1.355 4.821,-2.331 7.429,-2.925 -0.083,0.106 -0.165,0.212 -0.244,0.321 -1.746,0.731 -3.408,1.722 -4.903,2.723 -3.037,2.032 -5.898,4.485 -8.494,7.055 -2.481,2.454 -4.531,5.146 -6.138,8.24 -1.549,2.988 -2.861,5.947 -5.127,8.417 -0.564,0.384 -1.123,0.772 -1.679,1.17 3.216,-4.166 5.455,-8.995 8.157,-13.491 z m -1.941,6.104 c 1.791,-3.26 3.878,-6.2 6.533,-8.819 2.658,-2.622 5.635,-5.033 8.711,-7.148 2.887,-1.982 6.122,-3.163 9.159,-4.833 0.17,-0.051 0.341,-0.103 0.512,-0.153 -0.219,0.121 -0.436,0.242 -0.654,0.361 -1.209,0.668 -2.408,1.351 -3.594,2.061 -2.322,1.394 -4.584,2.899 -6.69,4.607 -4.216,3.421 -7.365,7.733 -10.613,12.034 -1.771,2.344 -3.624,4.593 -5.697,6.672 -0.356,0.224 -0.713,0.445 -1.063,0.676 1.357,-1.652 2.374,-3.599 3.396,-5.458 z M 87.936,4.418 c 2.53,-0.977 5.123,-1.766 7.758,-2.38 -4.424,1.396 -8.827,3.094 -12.435,6.033 -4.898,3.991 -6.998,10.037 -10.073,15.35 -1.992,3.442 -4.317,6.667 -6.475,10.005 -0.014,0.02 -0.018,0.04 -0.018,0.062 -0.309,0.241 -0.618,0.482 -0.924,0.729 2.189,-3.412 4.14,-6.976 5.825,-10.664 1.758,-3.849 2.869,-8.105 5.171,-11.683 2.537,-3.935 6.957,-5.824 11.171,-7.452 z m -17.82,17.205 c 0.854,-4.284 2.883,-8.028 6.146,-10.779 -2.347,3.376 -3.404,7.531 -4.948,11.297 -1.032,2.518 -2.212,4.967 -3.509,7.352 1.045,-2.537 1.783,-5.214 2.311,-7.87 z M 77.238,9.585 c -3.603,2.522 -6.179,6.373 -7.17,10.661 -0.65,2.808 -1.164,5.564 -2.252,8.251 -1.015,2.503 -2.336,4.82 -3.736,7.117 -0.267,0.225 -0.531,0.453 -0.795,0.681 1.781,-2.81 2.674,-6.28 3.308,-9.424 0.967,-4.782 1.543,-10.045 4.644,-14.02 1.473,-1.886 3.436,-3.355 5.772,-3.947 0.261,0.025 0.522,0.053 0.782,0.088 -0.19,0.191 -0.374,0.389 -0.553,0.593 z m -13.982,2.017 c 2.149,-1.135 4.494,-1.934 6.9,-2.383 -4.102,2.128 -7.63,5.315 -10.16,9.194 -1.678,2.572 -2.906,5.439 -3.616,8.426 -0.751,3.157 -0.71,6.348 -0.846,9.568 -0.078,1.872 -0.26,3.762 -0.798,5.563 -0.366,1.223 -0.908,2.368 -1.495,3.492 0.301,-0.771 0.554,-1.55 0.759,-2.305 0.72,-2.641 1.057,-5.302 0.981,-8.038 -0.08,-2.903 -0.003,-5.757 0.565,-8.616 0.544,-2.736 1.449,-5.4 2.692,-7.897 0.707,-1.419 1.521,-2.787 2.438,-4.08 0.747,-1.055 1.545,-2.136 2.58,-2.924 z m -8.526,31.57 c 0.492,-1.389 0.761,-2.864 0.896,-4.329 0.29,-3.169 0.119,-6.371 0.565,-9.525 0.862,-6.074 3.855,-11.725 8.411,-15.833 2.065,-1.865 4.435,-3.36 6.974,-4.49 0.575,-0.074 1.152,-0.127 1.731,-0.16 -1.907,0.947 -3.698,2.132 -5.329,3.498 -1.976,1.652 -3.918,3.623 -5.146,5.912 -1.456,2.713 -1.665,6.063 -2.209,9.048 -0.58,3.175 -1.201,6.363 -2.211,9.435 -0.83,2.528 -1.907,5.077 -3.298,7.393 -0.584,0.615 -1.161,1.235 -1.732,1.86 0.527,-0.898 0.999,-1.826 1.348,-2.809 z m 7.081,-9.144 c -1.59,3.296 -3.698,6.112 -5.744,9.096 -0.028,0.03 -0.057,0.06 -0.086,0.089 2.268,-3.936 3.442,-8.381 4.346,-12.883 0.622,-3.094 1,-6.268 1.8,-9.32 0.773,-2.947 2.681,-5.286 4.86,-7.342 1.445,-1.364 3.034,-2.531 4.731,-3.527 -0.705,0.716 -1.304,1.598 -1.862,2.5 -1.979,3.196 -3.475,6.654 -4.515,10.268 -1.08,3.756 -1.816,7.572 -3.53,11.119 z m 3.269,-7.104 c 0.659,-3.593 1.544,-6.982 3.155,-10.284 1.449,-2.969 3.654,-7.404 7.353,-7.831 0.104,0.004 0.208,0.01 0.313,0.015 -3.598,1.361 -6.019,4.716 -7.336,8.257 -1.768,4.75 -1.883,9.92 -3.581,14.69 -0.762,2.143 -1.888,4.052 -3.213,5.855 -0.754,0.678 -1.498,1.367 -2.233,2.065 2.722,-3.818 4.695,-8.16 5.542,-12.767 z M 61.159,12.857 c 0.102,-0.069 0.208,-0.134 0.312,-0.2 -1.067,1.213 -1.932,2.681 -2.683,3.974 -1.377,2.369 -2.441,4.924 -3.158,7.566 -0.705,2.6 -1.082,5.294 -1.064,7.987 0.021,3.022 0.251,5.937 -0.401,8.923 -0.353,1.62 -0.923,3.201 -1.596,4.714 -0.406,0.916 -0.898,1.774 -1.396,2.631 -0.017,0.019 -0.032,0.035 -0.049,0.054 -0.405,0.467 -0.806,0.937 -1.207,1.409 0.167,-0.422 0.325,-0.83 0.475,-1.205 0.936,-2.318 1.673,-4.696 2.1,-7.162 0.716,-4.121 0.306,-8.345 -0.19,-12.486 0.289,-6.362 3.544,-12.608 8.857,-16.205 z m -9.719,16.03 c -0.109,3.975 0.706,7.935 0.25,11.913 -0.294,2.58 -1.04,5.131 -2.088,7.503 -0.459,1.038 -0.986,2.048 -1.514,3.055 -0.375,0.713 -0.854,1.423 -1.167,2.179 -0.087,0.106 -0.174,0.213 -0.258,0.319 0.51,-1.245 0.931,-2.535 1.3,-3.786 0.677,-2.292 1.125,-4.643 1.345,-7.022 0.219,-2.365 0.138,-4.729 0.112,-7.102 -0.026,-2.494 0.065,-4.966 0.428,-7.438 0.335,-2.279 1.027,-4.567 2.039,-6.664 -0.623,2.271 -0.789,4.648 -0.447,7.043 z m -4.609,-5.47 c 1.146,-1.283 2.399,-2.452 3.747,-3.504 -2.41,2.952 -3.544,7.088 -3.91,10.714 -0.638,6.307 0.641,12.656 -0.177,18.951 -0.217,1.665 -0.581,3.32 -1.165,4.897 -0.4,1.08 -0.918,2.074 -1.507,3.034 -0.118,0.158 -0.238,0.313 -0.357,0.469 1.02,-3.313 1.055,-7.07 0.965,-10.335 -0.075,-2.793 -0.272,-5.584 -0.211,-8.379 0.065,-2.94 0.262,-5.887 0.653,-8.802 0.325,-2.42 0.87,-4.857 1.962,-7.045 z m 5.355,-2.552 c -1.132,1.882 -1.98,3.833 -2.465,6.002 -0.514,2.296 -0.525,4.579 -0.5,6.918 0.054,4.973 0.006,9.834 -1.249,14.681 -0.365,1.413 -0.811,2.807 -1.334,4.17 -0.258,0.669 -0.55,1.318 -0.848,1.967 0.33,-0.927 0.589,-1.875 0.79,-2.806 0.628,-2.907 0.688,-5.904 0.584,-8.866 -0.22,-6.161 -1.274,-12.785 1.245,-18.639 1.095,-2.546 2.805,-4.648 5.007,-6.265 -0.493,0.92 -0.905,1.867 -1.23,2.838 z m -6.327,3.703 c -0.522,1.25 -0.877,2.572 -1.131,3.933 -0.501,2.671 -0.725,5.415 -0.85,8.126 -0.262,5.662 0.737,11.38 0.018,17.02 -0.273,2.15 -0.865,4.141 -1.716,6.06 -0.336,0.456 -0.67,0.917 -1.002,1.377 0.447,-1.495 0.818,-3.008 1.072,-4.549 0.57,-3.453 0.666,-6.935 0.494,-10.426 -0.299,-6.068 -1.281,-12.563 0.889,-18.348 0.683,-1.105 1.413,-2.177 2.226,-3.193 z m -4.913,7.898 c 0.406,-0.734 0.81,-1.471 1.221,-2.204 -1.052,4.264 -0.438,8.89 -0.138,13.367 0.246,3.697 0.069,7.32 -0.58,10.972 -0.319,1.793 -0.744,3.573 -1.233,5.327 -0.414,1.491 -1.102,2.98 -1.412,4.512 -0.746,1.078 -1.48,2.164 -2.205,3.255 1.699,-4.946 2.189,-10.271 2.119,-15.474 -0.043,-3.107 -0.336,-6.201 -0.397,-9.309 -0.032,-1.602 0.019,-3.211 0.281,-4.794 0.172,-1.041 0.487,-2.004 0.821,-2.974 0.527,-0.886 1.029,-1.783 1.523,-2.678 z M 27.273,82.878 c 0.887,-4.512 0.432,-9.287 -0.291,-13.762 -0.49,-3.046 -0.991,-6.09 -1.508,-9.131 -0.512,-3.009 -1.001,-6.135 -0.627,-9.188 0.299,-2.428 1.078,-4.699 2.441,-6.663 0.252,-0.288 0.518,-0.563 0.801,-0.818 -0.916,1.629 -1.273,3.646 -1.304,5.438 -0.045,2.791 0.485,5.512 1.119,8.218 0.674,2.865 1.307,5.718 1.574,8.653 0.264,2.925 0.246,5.878 -0.069,8.798 -0.173,1.608 -0.434,3.208 -0.779,4.786 -0.177,0.809 -0.401,1.604 -0.628,2.398 -0.244,0.424 -0.487,0.848 -0.729,1.271 z m 1.757,-3.036 c 0.276,-1.278 0.477,-2.571 0.65,-3.81 0.381,-2.72 0.517,-5.478 0.39,-8.221 -0.13,-2.792 -0.548,-5.547 -1.194,-8.264 -0.664,-2.792 -1.48,-5.574 -1.709,-8.446 -0.124,-1.563 -0.006,-3.126 0.315,-4.658 0.201,-0.958 0.531,-1.833 0.936,-2.683 -0.087,0.353 -0.145,0.709 -0.172,1.064 -0.364,2.56 0.371,4.683 1.104,7.189 0.901,3.078 1.707,6.159 2.083,9.353 0.367,3.112 0.363,6.209 0.021,9.324 -0.158,1.432 -0.396,2.853 -0.685,4.262 -0.222,1.086 -0.574,2.159 -0.771,3.252 -0.327,0.546 -0.648,1.092 -0.968,1.638 z m 5.363,-10.263 c 0.622,-2.413 0.962,-4.902 1.001,-7.393 0.079,-5.026 -1.597,-9.886 -1.443,-14.914 0.079,-2.595 0.792,-4.908 1.889,-7.177 0.007,-0.007 0.012,-0.012 0.018,-0.018 0.224,-0.24 0.438,-0.488 0.649,-0.737 -0.253,1.027 -0.315,2.12 -0.298,3.116 0.04,2.443 0.38,4.862 0.388,7.312 0.019,5.255 0.27,10.542 -0.817,15.718 -0.425,2.027 -0.999,4.025 -1.645,5.996 -0.191,0.301 -0.385,0.602 -0.576,0.902 0.322,-0.933 0.596,-1.881 0.834,-2.805 z m 2.428,-9.972 c 0.182,-2.441 0.128,-4.894 0.17,-7.339 0.043,-2.475 0.043,-4.922 -0.176,-7.39 -0.127,-1.42 -0.249,-2.857 -0.073,-4.279 0.102,-0.829 0.313,-1.588 0.613,-2.319 0.357,-0.477 0.694,-0.967 1.022,-1.465 -0.246,1.067 -0.367,2.172 -0.44,3.188 -0.169,2.323 -0.011,4.652 0.147,6.971 0.343,4.998 0.658,10.027 -0.319,14.979 -0.481,2.44 -1.408,4.756 -2.089,7.142 -0.252,0.384 -0.503,0.768 -0.752,1.152 1.067,-3.446 1.632,-7.054 1.897,-10.64 z M 34.895,41.024 c -1.688,3.521 -1.466,7.658 -0.881,11.504 0.377,2.476 0.839,4.936 0.942,7.443 0.108,2.641 -0.087,5.29 -0.617,7.88 -0.307,1.488 -0.715,2.957 -1.231,4.386 -0.333,0.923 -0.735,1.809 -1.143,2.695 0.223,-1.388 0.328,-2.796 0.433,-4.041 0.107,-1.278 0.147,-2.565 0.138,-3.855 0.262,-3.93 -0.259,-7.91 -0.64,-11.809 -0.434,-4.446 -1.105,-9.504 1.809,-13.198 0.41,-0.319 0.807,-0.654 1.19,-1.005 z m -2.259,1.778 c 0.025,-0.015 0.047,-0.033 0.07,-0.049 -2.104,3.136 -1.669,7.668 -1.354,11.233 0.151,1.708 0.322,3.413 0.468,5.114 -0.313,-1.769 -0.728,-3.518 -1.211,-5.253 -0.708,-2.54 -1.2,-5.12 -1.625,-7.716 0.758,-1.572 2.25,-2.391 3.652,-3.329 z m -8.737,7.91 c 0.3,-0.937 0.647,-1.889 1.061,-2.813 -0.797,3.031 -0.605,6.454 -0.214,9.41 0.413,3.116 0.9,6.225 1.386,9.327 0.478,3.048 1.06,6.105 1.154,9.195 0.053,1.781 -0.04,3.566 -0.279,5.332 -0.153,1.125 -0.391,2.223 -0.641,3.321 -0.038,0.066 -0.076,0.134 -0.114,0.201 0.477,-2.56 0.333,-5.216 -0.186,-7.849 -0.887,-4.481 -2.162,-8.879 -2.907,-13.39 -0.718,-4.36 -0.616,-8.511 0.74,-12.734 z m -0.906,20.029 c -1.406,-5.517 -4.734,-12.579 -0.813,-17.52 -0.477,2.123 -0.668,4.294 -0.462,6.522 0.421,4.564 2.008,8.959 3.127,13.383 1.001,3.952 1.274,8.523 0.287,12.618 0.265,-5.012 -0.946,-10.323 -2.139,-15.003 z M 21.75,81.415 c -0.543,-3.759 -1.409,-7.438 -3.333,-10.644 1.68,2.108 2.827,4.521 3.604,7.189 0.547,1.884 0.927,3.806 1.131,5.758 0.212,2.013 0.018,4.079 0.271,6.074 0.003,0.013 0.006,0.025 0.009,0.038 -0.63,1.174 -1.254,2.352 -1.869,3.535 0.878,-3.881 0.773,-7.916 0.187,-11.95 z M 7.271,134.653 c -1.412,1.31 -2.716,2.708 -3.915,4.197 0.269,-0.581 0.537,-1.162 0.808,-1.742 0.312,-0.668 0.628,-1.346 1.029,-1.964 0.132,-0.204 0.277,-0.408 0.443,-0.585 0.381,-0.41 0.567,-0.532 1.09,-0.371 0.409,0.126 0.465,0.168 0.545,0.465 z m 7.498,-23.105 c -2.487,5.596 -5.034,11.262 -6.989,17.073 -0.571,1.698 -0.94,3.454 -0.593,5.182 -0.075,-0.053 -0.16,-0.097 -0.256,-0.127 -0.777,-0.246 -1.459,0.514 -1.86,1.066 -0.435,0.595 -0.813,1.236 -1.161,1.898 2.104,-5.958 4.539,-11.629 7.054,-17.576 C 15.637,108.012 20.86,97.184 26.652,86.672 32.988,75.169 40.034,63.978 48.18,53.66 55.677,44.163 64.177,35.083 74.464,28.576 79.771,25.22 85.6,22.636 91.688,21.284 c 0.067,0.021 0.141,0.009 0.206,-0.045 1.682,-0.366 3.383,-0.639 5.099,-0.805 -6.673,0.842 -13.102,3.174 -19.125,6.634 -5.455,3.132 -10.452,6.993 -15.074,11.278 -0.039,0.027 -0.071,0.058 -0.096,0.09 -4.233,3.936 -8.152,8.223 -11.804,12.643 -8.038,9.73 -15.219,20.425 -21.415,31.417 -2.872,5.097 -5.502,10.366 -8.118,15.597 -2.24,4.477 -4.557,8.878 -6.592,13.455 z M 78.022,54.467 c -0.315,0.249 -0.622,0.506 -0.929,0.762 -1.854,0.916 -4.274,1.176 -6.191,1.547 -2.465,0.479 -4.948,0.899 -7.401,1.439 -4.481,0.983 -8.79,2.63 -12.815,4.833 -6.045,3.307 -11.652,7.842 -16.195,13.16 0.387,-0.642 0.774,-1.282 1.164,-1.921 3.788,-4.738 8.133,-8.906 13.398,-12.038 2.927,-1.741 6.066,-3.167 9.307,-4.216 3.425,-1.109 6.912,-1.73 10.481,-2.134 3.732,-0.422 7.286,-1.373 10.791,-2.618 -0.551,0.383 -1.09,0.775 -1.61,1.186 z M 74,58.041 c -2.645,1.436 -5.446,2.335 -8.373,3.136 -3.308,0.903 -6.548,1.91 -9.68,3.32 -6.142,2.765 -11.832,6.39 -17.18,10.47 -2.311,1.764 -4.604,3.577 -6.802,5.491 5.873,-6.724 12.014,-13.022 20.05,-17.242 4.374,-2.297 9.046,-3.859 13.929,-4.611 2.457,-0.378 4.938,-0.541 7.381,-1.022 0.478,-0.095 0.981,-0.189 1.478,-0.314 -0.27,0.254 -0.54,0.509 -0.803,0.772 z M 62.705,75.726 c -1.218,1.182 -2.257,2.425 -3.757,3.326 -1.686,1.012 -3.56,1.654 -5.465,2.11 -4.097,0.979 -8.34,1.22 -12.471,2.023 -3.492,0.679 -6.986,1.626 -10.097,3.397 -1.422,0.81 -2.948,1.884 -4.269,3.139 0.313,-0.569 0.628,-1.138 0.947,-1.703 1.636,-1.603 3.464,-2.981 5.561,-3.975 2.887,-1.365 6.007,-2.15 9.117,-2.819 3.233,-0.696 6.469,-1.359 9.59,-2.478 2.686,-0.962 5.277,-2.189 7.688,-3.716 1.31,-0.83 2.564,-1.747 3.743,-2.756 0.485,-0.414 0.987,-0.847 1.469,-1.305 -0.76,1.546 -1.446,3.132 -2.056,4.757 z m 2.928,-6.441 c -0.764,0.74 -1.48,1.535 -2.28,2.242 -1.126,0.995 -2.329,1.905 -3.585,2.733 -2.513,1.656 -5.238,2.984 -8.062,4.021 -6.123,2.25 -12.798,2.812 -18.737,5.586 -1.589,0.742 -3.181,1.605 -4.557,2.715 0.273,-0.477 0.547,-0.952 0.82,-1.427 0.724,-0.64 1.448,-1.272 2.225,-1.864 1.23,-0.938 2.579,-1.692 3.977,-2.355 2.854,-1.354 5.893,-2.274 8.918,-3.16 3.009,-0.882 6.021,-1.737 8.924,-2.938 2.654,-1.098 5.232,-2.39 7.7,-3.859 2.021,-1.202 4.102,-2.512 5.986,-4.003 -0.462,0.756 -0.906,1.525 -1.329,2.309 z m 2.242,-3.744 c -2.096,1.576 -4.126,3.198 -6.368,4.587 -2.595,1.61 -5.313,3.02 -8.125,4.208 -5.844,2.467 -12.154,3.646 -17.916,6.298 -1.804,0.831 -3.775,1.822 -5.423,3.122 0.135,-0.23 0.268,-0.463 0.402,-0.694 2.077,-1.733 4.267,-3.319 6.641,-4.633 2.895,-1.6 5.961,-2.895 9.037,-4.104 5.915,-2.325 11.985,-4.271 17.581,-7.334 2.037,-1.116 4.022,-2.377 5.846,-3.832 -0.584,0.776 -1.14,1.572 -1.675,2.382 z m 3.365,-4.497 c -4.666,4.212 -10.188,6.998 -15.975,9.398 -5.889,2.441 -11.972,4.46 -17.604,7.482 -2.336,1.254 -4.652,2.609 -6.717,4.279 0.163,-0.282 0.328,-0.564 0.492,-0.846 4.805,-4.025 9.572,-8.036 14.901,-11.388 5.874,-3.694 12.127,-6.401 18.832,-8.179 2.512,-0.666 5.193,-1.308 7.582,-2.459 -0.518,0.56 -1.02,1.132 -1.511,1.713 z m 10.163,-8.925 c -3.958,1.382 -7.813,2.713 -12.009,3.226 -3.532,0.434 -6.99,0.979 -10.388,2.078 -6.414,2.074 -12.329,5.495 -17.41,9.916 -1.539,1.338 -3,2.792 -4.337,4.35 0.661,-1.056 1.328,-2.105 2.002,-3.151 2.028,-1.947 4.107,-3.838 6.436,-5.428 2.65,-1.809 5.491,-3.338 8.463,-4.543 6.141,-2.489 12.763,-3.466 19.228,-4.734 2.828,-0.555 5.66,-1.152 8.427,-1.967 -0.138,0.083 -0.275,0.168 -0.412,0.253 z m -38.679,37.1 c 2.205,-0.322 4.503,-0.549 6.607,0.168 -5.187,0.318 -10.343,1.238 -15.259,2.944 -4.224,1.467 -8.782,3.675 -12.211,6.767 0.447,-0.937 0.903,-1.869 1.364,-2.8 0.086,0 0.175,-0.022 0.266,-0.079 3.859,-2.417 8.011,-4.275 12.387,-5.54 2.247,-0.647 4.534,-1.123 6.846,-1.46 z M 59.6,82.325 c -3.727,2.396 -8.219,3.073 -12.521,3.691 -8.076,1.159 -15.747,3.274 -22.349,8.276 3.835,-5.047 10.186,-6.753 16.268,-7.837 3.532,-0.63 7.069,-1.209 10.566,-2.023 3.177,-0.739 6.412,-1.576 9.188,-3.357 0.964,-0.618 1.862,-1.359 2.647,-2.198 -1.029,1.347 -2.34,2.51 -3.799,3.448 z m 5.927,-8.139 c -0.072,0.401 -0.162,0.794 -0.281,1.177 -2.338,5.54 -8.996,7.798 -14.567,8.997 -3.579,0.771 -7.185,1.348 -10.793,1.956 -3.209,0.541 -6.414,1.251 -9.354,2.688 -2.263,1.105 -4.455,2.665 -5.998,4.699 0.279,-0.542 0.562,-1.086 0.847,-1.626 0.833,-0.991 1.694,-1.934 2.801,-2.704 1.528,-1.065 3.204,-1.943 4.913,-2.677 3.839,-1.65 7.975,-2.389 12.086,-2.986 3.755,-0.546 7.635,-0.863 11.229,-2.155 2.299,-0.825 5.146,-2.26 6.621,-4.421 0.03,-0.018 0.063,-0.034 0.087,-0.061 0.891,-0.908 1.674,-1.875 2.409,-2.887 z M 83.386,50.933 c -6.214,1.997 -12.653,2.949 -19.015,4.365 -6.387,1.424 -12.541,3.545 -18.045,7.148 -2.179,1.426 -4.315,2.995 -6.223,4.791 0.636,-0.97 1.28,-1.933 1.933,-2.893 3.645,-4.283 8.246,-7.582 13.526,-9.777 6.968,-2.898 14.346,-3.691 21.802,-4.21 3.062,-0.213 6.183,-0.436 9.168,-1.188 -1.053,0.584 -2.108,1.166 -3.146,1.764 z m 4.562,-2.549 c -6.989,1.927 -14.333,1.563 -21.454,2.814 -7.083,1.242 -14.069,3.75 -19.799,8.187 -1.091,0.845 -2.142,1.757 -3.125,2.736 1.057,-1.509 2.135,-3.005 3.243,-4.482 1.486,-1.168 2.771,-2.465 4.449,-3.408 1.789,-1.008 3.728,-1.74 5.712,-2.258 4.489,-1.172 9.212,-1.297 13.825,-1.483 4.111,-0.163 8.233,-0.639 12.267,-1.46 2.307,-0.468 4.707,-1.021 6.982,-1.852 -0.693,0.41 -1.395,0.81 -2.1,1.206 z m 29.267,-2.833 c -1.318,0.004 -2.63,-0.22 -3.898,-0.567 -2.712,-0.742 -5.184,-2.113 -7.569,-3.568 -2.233,-1.363 -4.419,-2.817 -6.77,-3.976 -2.496,-1.229 -5.154,-1.915 -7.904,-2.305 -4.861,-0.688 -9.979,-0.612 -14.879,-0.403 -3.677,0.158 -7.205,0.817 -10.539,2.206 0.108,-0.094 0.216,-0.185 0.323,-0.278 1.346,-0.661 2.685,-1.237 4.164,-1.598 1.644,-0.401 3.33,-0.608 5.013,-0.764 3.824,-0.351 7.681,-0.381 11.509,-0.085 3.71,0.287 7.467,0.814 11.063,1.785 1.898,0.513 3.677,1.235 5.404,2.167 1.568,0.846 3.106,1.752 4.746,2.457 1.876,0.803 3.851,1.347 5.859,1.691 1.43,0.247 2.938,0.37 4.263,-0.268 1.309,0.537 2.639,0.995 4.004,1.292 -0.007,2.037 -3.435,2.21 -4.789,2.214 z m 6.95,-2.824 c -5.009,-0.959 -9.522,-3.72 -14.233,-5.568 -4.9,-1.924 -10.001,-3.531 -15.128,-4.729 -1.76,-0.41 -3.544,-0.759 -5.342,-1.02 0.521,0.021 1.039,0.047 1.559,0.081 4.768,0.307 9.497,1.081 14.133,2.224 4.588,1.131 8.931,2.839 13.388,4.377 4.212,1.453 8.517,2.369 12.991,2.208 2.328,-0.084 4.65,-0.431 6.904,-1.019 1.131,-0.297 2.279,-0.64 3.395,-1.063 -5.246,3.179 -11.528,4.466 -17.667,4.509 z m 21.616,-7.467 c -0.59,0.542 -1.202,1.051 -1.833,1.526 -1.695,0.72 -3.373,1.43 -5.16,1.927 -2.085,0.577 -4.228,0.944 -6.386,1.096 -4.529,0.317 -8.951,-0.365 -13.247,-1.806 -4.471,-1.497 -8.819,-3.277 -13.382,-4.503 -4.444,-1.193 -9.013,-1.956 -13.601,-2.321 -2.479,-0.198 -4.982,-0.285 -7.482,-0.229 -1.68,-0.075 -3.362,-0.053 -5.038,0.094 -3.19,0.277 -6.581,0.944 -9.584,2.298 1.903,-1.004 3.854,-1.843 5.979,-2.352 2.838,-0.678 5.774,-0.762 8.678,-0.689 5.872,0.146 11.708,0.912 17.502,1.837 11.309,1.804 22.689,4.229 34.201,4.017 3.533,-0.067 7.582,-0.408 10.696,-2.258 -0.428,0.472 -0.872,0.93 -1.343,1.363 z m 2.331,-2.503 c -3.126,2.295 -7.327,2.798 -11.139,2.943 -5.819,0.223 -11.592,-0.249 -17.353,-1.066 -11.348,-1.607 -22.568,-4.284 -34.06,-4.698 -4.458,-0.161 -9.133,0.112 -13.275,1.811 8.785,-4.497 19.031,-4.258 28.649,-2.873 6.116,0.882 12.18,2.14 18.338,2.709 5.736,0.531 11.527,0.439 17.242,-0.3 3.106,-0.4 6.192,-0.98 9.234,-1.72 2.576,-0.627 5.205,-1.33 7.455,-2.762 -1.925,1.786 -3.421,3.944 -5.091,5.956 z"
         class="color c3"
         id="path38" />
    </g>
    <g
       transform="matrix(6.0887434,0,0,6.0886971,169.66958,140.44764)"
       id="g87"
       style="overflow:visible;opacity:1">
      <path
         style="fill:url(#linearGradient_2_c1)"
         inkscape:connector-curvature="0"
         fill="url(#linearGradient_2_c1)"
         d="M 131.39,131.391 H 24.547 v -2 H 129.39 V 60.057 h 2 z m -124.842,-2 H 2 V 2 h 127.39 v 7.057 h 2 V 0 H 0 v 131.391 h 6.548 z"
         class="color c1"
         id="path76" />
    </g>
    <g
       transform="matrix(6.0887434,0,0,6.0886971,197.81465,183.43036)"
       id="g69"
       style="overflow:visible;opacity:1">
      <path
         inkscape:connector-curvature="0"
         fill="url(#linearGradient_3_c1)"
         d="M 131.39,131.391 H 24.547 v -2 H 129.39 V 60.057 h 2 z m -124.842,-2 H 2 V 2 h 127.39 v 7.057 h 2 V 0 H 0 v 131.391 h 6.548 z"
         class="color c1"
         id="path61"
         style="fill:url(#linearGradient101)" />
    </g>
    <g
       transform="matrix(0.84151505,0,0,0.70281301,744.2475,812.75153)"
       id="g99"
       style="overflow:visible;opacity:1;stroke-width:1.32409">
      <path
         style="stroke-width:1.32409"
         inkscape:connector-curvature="0"
         fill="#404040"
         d="m 153.139,53.347 h 12.596 l -6.359,-17.13 z M 39.303,43.649 c 1.596,-0.188 2.85,-0.74 3.764,-1.652 0.913,-0.913 1.369,-2.114 1.369,-3.605 0,-1.427 -0.394,-2.587 -1.181,-3.479 C 42.468,34.02 41.297,33.479 39.743,33.292 38.82,33.188 36.164,33.135 31.776,33.135 H 26.423 V 43.81 h 6.108 c 3.633,-0.004 5.89,-0.055 6.772,-0.161 z m 2.913,8.501 C 40.945,51.712 38.19,51.491 33.949,51.491 h -7.525 v 12.344 h 8.628 c 3.358,0 5.49,-0.097 6.393,-0.283 1.386,-0.252 2.514,-0.867 3.385,-1.842 0.871,-0.978 1.308,-2.283 1.308,-3.922 0,-1.388 -0.336,-2.562 -1.008,-3.525 -0.672,-0.964 -1.645,-1.671 -2.914,-2.113 z M 180,0 H 20 C 8.954,0 0,8.953 0,20 v 57.058 c 0,11.047 8.954,20 20,20 h 160 c 11.045,0 20,-8.953 20,-20 V 20 C 200,8.953 191.045,0 180,0 Z M 54.309,64.353 c -0.977,1.984 -2.311,3.568 -4,4.754 -1.689,1.188 -3.773,1.916 -6.251,2.189 -1.554,0.168 -5.301,0.271 -11.242,0.313 H 17.103 V 25.448 h 18.453 c 3.653,0 6.377,0.151 8.172,0.456 1.795,0.307 3.4,0.939 4.817,1.905 1.418,0.966 2.599,2.251 3.543,3.857 0.944,1.604 1.417,3.404 1.417,5.397 0,2.164 -0.582,4.146 -1.748,5.952 -1.164,1.808 -2.744,3.159 -4.739,4.063 2.813,0.817 4.976,2.215 6.487,4.188 1.512,1.976 2.268,4.295 2.268,6.961 -0.001,2.101 -0.489,4.142 -1.464,6.126 z m 44.447,7.258 H 63.645 V 25.448 h 34.229 v 7.811 H 72.966 v 10.234 h 23.177 v 7.775 H 72.966 V 63.83 h 25.79 z m 27.617,0 h -9.321 V 33.257 h -13.698 v -7.812 h 36.688 v 7.812 h -13.667 z m 46.384,0 -4.03,-10.485 h -18.453 l -3.81,10.485 h -9.889 l 17.979,-46.165 h 9.854 l 18.483,46.165 z"
         class="color c1"
         id="path91" />
    </g>
  </g>
</svg>
